<?xml version="1.0" encoding="UTF-8" standalone="no"?>
<!-- Created with Inkscape (http://www.inkscape.org/) -->

<svg
   width="210mm"
   height="297mm"
   viewBox="0 0 210 297"
   version="1.1"
   id="svg170"
   xml:space="preserve"
   inkscape:version="1.2.2 (732a01da63, 2022-12-09)"
   sodipodi:docname="Zeichnung.svg"
   xmlns:inkscape="http://www.inkscape.org/namespaces/inkscape"
   xmlns:sodipodi="http://sodipodi.sourceforge.net/DTD/sodipodi-0.dtd"
   xmlns="http://www.w3.org/2000/svg"
   xmlns:svg="http://www.w3.org/2000/svg"><sodipodi:namedview
     id="namedview172"
     pagecolor="#ffffff"
     bordercolor="#000000"
     borderopacity="0.25"
     inkscape:showpageshadow="2"
     inkscape:pageopacity="0.0"
     inkscape:pagecheckerboard="0"
     inkscape:deskcolor="#d1d1d1"
     inkscape:document-units="mm"
     showgrid="false"
     inkscape:zoom="1.1893044"
     inkscape:cx="-22.702346"
     inkscape:cy="567.97906"
     inkscape:window-width="1368"
     inkscape:window-height="842"
     inkscape:window-x="-6"
     inkscape:window-y="-6"
     inkscape:window-maximized="1"
     inkscape:current-layer="layer1" /><defs
     id="defs167"><rect
       x="-262.79327"
       y="564.82717"
       width="318.68144"
       height="63.022821"
       id="rect377" /></defs><g
     inkscape:label="Ebene 1"
     inkscape:groupmode="layer"
     id="layer1"><path
       d="m -73.182627,200.98347 h 9.75 v 4 h 10.25 v -4 h 9.75 v 4 h 10.25 v -4 h 9.75 v 4 h 10.25 v -4 h 9.75 v 4 h 10.25 v -4 h 9.75 v 4 h 15.55 v -10.55 h -4 v -9.75 h 4 v -10.25 h -4 v -9.75 h 4 v -10.25 h -4 v -9.75 h 4 v -10.55 h -15.55 v 4 h -9.75 v -4 h -10.25 v 4 h -9.75 v -4 h -10.25 v 4 h -9.75 v -4 h -10.25 v 4 h -9.75 v -4 h -10.25 v 4 h -9.75 v -4 h -15.55 v 10.55 h 4 v 9.75 h -4 v 10.25 h 4 v 9.75 h -4 v 10.25 h 4 v 9.75 h -4 v 10.55 h 15.55 z"
       id="front_outsideCutPath"
       stroke="#FF0000"
       stroke-width="0.1"
       style="font-size:12px;fill:none;fill-rule:evenodd;stroke:#ff0000;stroke-width:0.1;stroke-linecap:round"
       vector-effect="non-scaling-stroke" /><path
       d="m 45.667373,200.98347 h 9.75 v 4 h 10.25 v -4 h 9.75 v 4 h 10.25 v -4 h 9.75 v 4 h 10.249997 v -4 h 9.75 v 4 h 6.55 v -10.3 h 4 v -10.25 h -4 v -9.75 h 4 v -10.25 h -4 v -9.75 h 4 v -10.25 h -4 v -10.3 h -6.55 v 4 h -9.75 v -4 H 95.417373 v 4 h -9.75 v -4 h -10.25 v 4 h -9.75 v -4 h -10.25 v 4 h -9.75 v -4 h -6.55 v 10.3 h -4 v 10.25 h 4 v 9.75 h -4 v 10.25 h 4 v 9.75 h -4 v 10.25 h 4 v 10.3 h 6.55 z"
       id="left_outsideCutPath"
       stroke="#FF0000"
       stroke-width="0.1"
       style="font-size:12px;fill:none;fill-rule:evenodd;stroke:#ff0000;stroke-width:0.1;stroke-linecap:round"
       vector-effect="non-scaling-stroke" /><path
       d="m 154.51737,200.98347 h 9.75 v 4 h 10.25 v -4 h 9.75 v 4 h 10.25 v -4 h 9.75 v 4 h 10.25 v -4 h 9.75 v 4 h 10.25 v -4 h 11.3 v -6.3 h 4 v -10.25 h -4 v -9.75 h 4 v -10.25 h -4 v -9.75 h 4 v -10.25 h -4 v -9.75 h 4 v -10.25 h -4 v -6.3 h -11.3 v -4 h -10.25 v 4 h -9.75 v -4 h -10.25 v 4 h -9.75 v -4 h -10.25 v 4 h -9.75 v -4 h -10.25 v 4 h -9.75 v -4 h -10.25 v 4 h -11.3 v 6.3 h -4 v 10.25 h 4 v 9.75 h -4 v 10.25 h 4 v 9.75 h -4 v 10.25 h 4 v 9.75 h -4 v 10.25 h 4 v 6.3 h 11.3 v 4 h 10.25 z"
       id="top_outsideCutPath"
       stroke="#FF0000"
       stroke-width="0.1"
       style="font-size:12px;fill:none;fill-rule:evenodd;stroke:#ff0000;stroke-width:0.1;stroke-linecap:round"
       vector-effect="non-scaling-stroke" /><path
       d="m -73.182627,127.13347 h 9.75 v 4 h 10.25 v -4 h 9.75 v 4 h 10.25 v -4 h 9.75 v 4 h 10.25 v -4 h 9.75 v 4 h 10.25 v -4 h 9.75 v 4 h 15.55 v -10.55 h -4 v -9.75 h 4 v -10.25 h -4 v -9.749995 h 4 v -10.25 h -4 v -9.75 h 4 v -10.55 h -15.55 v 4 h -9.75 v -4 h -10.25 v 4 h -9.75 v -4 h -10.25 v 4 h -9.75 v -4 h -10.25 v 4 h -9.75 v -4 h -10.25 v 4 h -9.75 v -4 h -15.55 v 10.55 h 4 v 9.75 h -4 v 10.25 h 4 v 9.749995 h -4 v 10.25 h 4 v 9.75 h -4 v 10.55 h 15.55 z"
       id="back_outsideCutPath"
       stroke="#FF0000"
       stroke-width="0.1"
       style="font-size:12px;fill:none;fill-rule:evenodd;stroke:#ff0000;stroke-width:0.1;stroke-linecap:round"
       vector-effect="non-scaling-stroke" /><path
       d="m 45.667373,127.13347 h 9.75 v 4 h 10.25 v -4 h 9.75 v 4 h 10.25 v -4 h 9.75 v 4 h 10.249997 v -4 h 9.75 v 4 h 6.55 v -10.3 h 4 v -10.25 h -4 v -9.75 h 4 V 90.583475 h -4 v -9.75 h 4 v -10.25 h -4 v -10.3 h -6.55 v 4 h -9.75 v -4 H 95.417373 v 4 h -9.75 v -4 h -10.25 v 4 h -9.75 v -4 h -10.25 v 4 h -9.75 v -4 h -6.55 v 10.3 h -4 v 10.25 h 4 v 9.75 h -4 v 10.249995 h 4 v 9.75 h -4 v 10.25 h 4 v 10.3 h 6.55 z"
       id="right_outsideCutPath"
       stroke="#FF0000"
       stroke-width="0.1"
       style="font-size:12px;fill:none;fill-rule:evenodd;stroke:#ff0000;stroke-width:0.1;stroke-linecap:round"
       vector-effect="non-scaling-stroke" /><path
       d="m 154.51737,107.13347 h 9.75 v 4 h 10.25 v -4 h 9.75 v 4 h 10.25 v -4 h 9.75 v 4 h 10.25 v -4 h 9.75 v 4 h 10.25 v -4 h 11.3 v -6.3 h 4 V 90.583475 h -4 v -9.75 h 4 v -10.25 h -4 v -9.75 h 4 v -10.25 h -4 v -9.75 h 4 v -10.25 h -4 v -6.3 h -11.3 v -4 h -10.25 v 4 h -9.75 v -4 h -10.25 v 4 h -9.75 v -4 h -10.25 v 4 h -9.75 v -4 h -10.25 v 4 h -9.75 v -4 h -10.25 v 4 h -11.3 v 6.3 h -4 v 10.25 h 4 v 9.75 h -4 v 10.25 h 4 v 9.75 h -4 v 10.25 h 4 v 9.75 h -4 v 10.249995 h 4 v 6.3 h 11.3 v 4 h 10.25 z"
       id="bottom_outsideCutPath"
       stroke="#FF0000"
       stroke-width="0.1"
       style="font-size:12px;fill:none;fill-rule:evenodd;stroke:#ff0000;stroke-width:0.1;stroke-linecap:round"
       vector-effect="non-scaling-stroke" /><rect
       style="fill:#000000;stroke-width:0.328177"
       id="rect259"
       width="51"
       height="19"
       x="-53.807629"
       y="171.78746" /><rect
       style="fill:#000000;stroke-width:0.198011"
       id="rect321"
       width="20"
       height="8"
       x="-48.520943"
       y="115.46503" /><g
       aria-label="Alarmo"
       transform="matrix(0.26458333,0,0,0.26458333,16.345991,0)"
       id="text375"
       style="font-size:53.3333px;white-space:pre;shape-inside:url(#rect377);display:inline"><path
         d="m -227.01174,613.48571 h -5.49479 l -3.80208,-10.80728 h -16.77082 l -3.80208,10.80728 h -5.23438 l 14.11458,-38.77602 h 6.875 z m -10.88541,-15.23436 -6.79687,-19.03645 -6.82291,19.03645 z"
         id="path969" /><path
         d="m -216.56904,613.48571 h -4.89583 V 572.9649 h 4.89583 z"
         id="path971" /><path
         d="m -184.27739,613.48571 h -4.86979 v -3.09895 q -0.65104,0.4427 -1.77083,1.25 -1.09375,0.78125 -2.13542,1.24999 -1.22395,0.59896 -2.8125,0.98959 -1.58854,0.41666 -3.72395,0.41666 -3.93229,0 -6.66666,-2.60416 -2.73438,-2.60417 -2.73438,-6.64062 0,-3.30729 1.40625,-5.33854 1.43229,-2.05729 4.0625,-3.22917 2.65625,-1.17187 6.3802,-1.58854 3.72396,-0.41666 7.99479,-0.625 v -0.7552 q 0,-1.66667 -0.59896,-2.76042 -0.57291,-1.09375 -1.66666,-1.71875 -1.04167,-0.59896 -2.5,-0.80729 -1.45833,-0.20833 -3.04687,-0.20833 -1.92709,0 -4.29688,0.52083 -2.36979,0.49479 -4.89583,1.45833 h -0.26041 v -4.97395 q 1.43229,-0.39063 4.14062,-0.85938 2.70833,-0.46875 5.33854,-0.46875 3.07291,0 5.33854,0.52084 2.29166,0.49479 3.95833,1.71875 1.64062,1.19791 2.49999,3.09895 0.85938,1.90104 0.85938,4.71354 z m -4.86979,-7.16145 v -8.09895 q -2.23958,0.1302 -5.28645,0.39062 -3.02084,0.26042 -4.79167,0.75521 -2.10937,0.59896 -3.41145,1.875 -1.30209,1.25 -1.30209,3.46354 0,2.49999 1.51042,3.77604 1.51041,1.25 4.60937,1.25 2.57812,0 4.71354,-0.98959 2.13542,-1.01562 3.95833,-2.42187 z"
         id="path973" /><path
         d="m -156.69928,589.73573 h -0.26041 q -1.09375,-0.26042 -2.13542,-0.36459 -1.01562,-0.1302 -2.42187,-0.1302 -2.26563,0 -4.375,1.01562 -2.10937,0.98958 -4.0625,2.57812 v 20.65103 h -4.89583 v -29.08852 h 4.89583 v 4.29687 q 2.91667,-2.34375 5.13021,-3.30729 2.23958,-0.98958 4.55729,-0.98958 1.27604,0 1.84895,0.0781 0.57292,0.0521 1.71875,0.23438 z"
         id="path975" /><path
         d="m -109.64202,613.48571 h -4.89583 v -16.56249 q 0,-1.875 -0.18229,-3.61979 -0.15625,-1.74479 -0.70313,-2.78645 -0.59895,-1.11979 -1.71874,-1.69271 -1.1198,-0.57292 -3.22917,-0.57292 -2.05729,0 -4.11458,1.04167 -2.05729,1.01562 -4.11458,2.60416 0.0781,0.59896 0.13021,1.40625 0.0521,0.78125 0.0521,1.5625 v 18.61978 h -4.89583 v -16.56249 q 0,-1.92708 -0.18229,-3.64583 -0.15625,-1.74479 -0.70313,-2.78646 -0.59895,-1.11979 -1.71874,-1.66666 -1.1198,-0.57292 -3.22917,-0.57292 -2.00521,0 -4.03646,0.98959 -2.0052,0.98958 -4.01041,2.52604 v 21.71873 h -4.89583 v -29.08852 h 4.89583 v 3.22916 q 2.29167,-1.90104 4.55729,-2.96874 2.29166,-1.06771 4.86979,-1.06771 2.96875,0 5.02604,1.25 2.08333,1.25 3.09895,3.46354 2.96875,-2.5 5.41667,-3.59375 2.44791,-1.11979 5.23437,-1.11979 4.79166,0 7.05729,2.91666 2.29166,2.89063 2.29166,8.09896 z"
         id="path977" /><path
         d="m -75.423281,598.95447 q 0,7.10937 -3.645831,11.22395 -3.645832,4.11458 -9.76562,4.11458 -6.171871,0 -9.817702,-4.11458 -3.619786,-4.11458 -3.619786,-11.22395 0,-7.10937 3.619786,-11.22395 3.645831,-4.14062 9.817702,-4.14062 6.119788,0 9.76562,4.14062 3.645831,4.11458 3.645831,11.22395 z m -5.052081,0 q 0,-5.65104 -2.21354,-8.38541 -2.21354,-2.76042 -6.14583,-2.76042 -3.984372,0 -6.197913,2.76042 -2.187498,2.73437 -2.187498,8.38541 0,5.46875 2.21354,8.30729 2.21354,2.8125 6.171871,2.8125 3.906248,0 6.119788,-2.78646 2.239582,-2.8125 2.239582,-8.33333 z"
         id="path979" /></g><circle
       style="fill:#000000;stroke-width:0.160365"
       id="path503"
       cx="111.56038"
       cy="195.09163"
       r="0.5" /><circle
       style="fill:#000000;stroke-width:0.160365"
       id="path503-1"
       cx="107.75689"
       cy="194.96317"
       r="0.5" /><circle
       style="fill:#000000;stroke-width:0.160365"
       id="path503-0"
       cx="104.12321"
       cy="194.81993"
       r="0.5" /><circle
       style="fill:#000000;stroke-width:0.160365"
       id="path503-5"
       cx="100.04874"
       cy="194.86015"
       r="0.5" /><circle
       style="fill:#000000;stroke-width:0.160365"
       id="path503-1-5"
       cx="96.245239"
       cy="194.73169"
       r="0.5" /><circle
       style="fill:#000000;stroke-width:0.160365"
       id="path503-0-5"
       cx="92.611565"
       cy="194.58846"
       r="0.5" /><circle
       style="fill:#000000;stroke-width:0.160365"
       id="path503-0-5-6"
       cx="88.508301"
       cy="194.54878"
       r="0.5" /><circle
       style="fill:#000000;stroke-width:0.160365"
       id="path503-02"
       cx="111.50351"
       cy="191.35971"
       r="0.5" /><circle
       style="fill:#000000;stroke-width:0.160365"
       id="path503-1-0"
       cx="107.70002"
       cy="191.23125"
       r="0.5" /><circle
       style="fill:#000000;stroke-width:0.160365"
       id="path503-0-2"
       cx="104.06633"
       cy="191.08801"
       r="0.5" /><circle
       style="fill:#000000;stroke-width:0.160365"
       id="path503-5-2"
       cx="99.991875"
       cy="191.12823"
       r="0.5" /><circle
       style="fill:#000000;stroke-width:0.160365"
       id="path503-1-5-7"
       cx="96.188377"
       cy="190.99977"
       r="0.5" /><circle
       style="fill:#000000;stroke-width:0.160365"
       id="path503-0-5-9"
       cx="92.554703"
       cy="190.85654"
       r="0.5" /><circle
       style="fill:#000000;stroke-width:0.160365"
       id="path503-0-5-6-1"
       cx="88.451439"
       cy="190.81686"
       r="0.5" /><circle
       style="fill:#000000;stroke-width:0.160365"
       id="path503-3"
       cx="111.44784"
       cy="187.12671"
       r="0.5" /><circle
       style="fill:#000000;stroke-width:0.160365"
       id="path503-1-2"
       cx="107.64436"
       cy="186.99825"
       r="0.5" /><circle
       style="fill:#000000;stroke-width:0.160365"
       id="path503-0-59"
       cx="104.01067"
       cy="186.85501"
       r="0.5" /><circle
       style="fill:#000000;stroke-width:0.160365"
       id="path503-5-7"
       cx="99.936218"
       cy="186.89523"
       r="0.5" /><circle
       style="fill:#000000;stroke-width:0.160365"
       id="path503-1-5-2"
       cx="96.132721"
       cy="186.76677"
       r="0.5" /><circle
       style="fill:#000000;stroke-width:0.160365"
       id="path503-0-5-3"
       cx="92.499046"
       cy="186.62354"
       r="0.5" /><circle
       style="fill:#000000;stroke-width:0.160365"
       id="path503-0-5-6-8"
       cx="88.395782"
       cy="186.58386"
       r="0.5" /><circle
       style="fill:#000000;stroke-width:0.160365"
       id="path503-02-2"
       cx="111.39098"
       cy="183.39479"
       r="0.5" /><circle
       style="fill:#000000;stroke-width:0.160365"
       id="path503-1-0-8"
       cx="107.58749"
       cy="183.26633"
       r="0.5" /><circle
       style="fill:#000000;stroke-width:0.160365"
       id="path503-0-2-3"
       cx="103.9538"
       cy="183.12309"
       r="0.5" /><circle
       style="fill:#000000;stroke-width:0.160365"
       id="path503-5-2-0"
       cx="99.879356"
       cy="183.16331"
       r="0.5" /><circle
       style="fill:#000000;stroke-width:0.160365"
       id="path503-1-5-7-3"
       cx="96.075859"
       cy="183.03485"
       r="0.5" /><circle
       style="fill:#000000;stroke-width:0.160365"
       id="path503-0-5-9-9"
       cx="92.442184"
       cy="182.89162"
       r="0.5" /><circle
       style="fill:#000000;stroke-width:0.160365"
       id="path503-0-5-6-1-8"
       cx="88.338921"
       cy="182.85194"
       r="0.5" /><circle
       style="fill:#000000;stroke-width:0.160365"
       id="path503-3-5"
       cx="111.67192"
       cy="179.19408"
       r="0.5" /><circle
       style="fill:#000000;stroke-width:0.160365"
       id="path503-1-2-3"
       cx="107.86845"
       cy="179.06561"
       r="0.5" /><circle
       style="fill:#000000;stroke-width:0.160365"
       id="path503-0-59-6"
       cx="104.23473"
       cy="178.92238"
       r="0.5" /><circle
       style="fill:#000000;stroke-width:0.160365"
       id="path503-5-7-8"
       cx="100.16031"
       cy="178.9626"
       r="0.5" /><circle
       style="fill:#000000;stroke-width:0.160365"
       id="path503-1-5-2-6"
       cx="96.356812"
       cy="178.83414"
       r="0.5" /><circle
       style="fill:#000000;stroke-width:0.160365"
       id="path503-0-5-3-6"
       cx="92.723137"
       cy="178.6909"
       r="0.5" /><circle
       style="fill:#000000;stroke-width:0.160365"
       id="path503-0-5-6-8-3"
       cx="88.619873"
       cy="178.65123"
       r="0.5" /><circle
       style="fill:#000000;stroke-width:0.160365"
       id="path503-02-2-9"
       cx="111.61507"
       cy="175.46216"
       r="0.5" /><circle
       style="fill:#000000;stroke-width:0.160365"
       id="path503-1-0-8-3"
       cx="107.81158"
       cy="175.33369"
       r="0.5" /><circle
       style="fill:#000000;stroke-width:0.160365"
       id="path503-0-2-3-8"
       cx="104.17786"
       cy="175.19046"
       r="0.5" /><circle
       style="fill:#000000;stroke-width:0.160365"
       id="path503-5-2-0-5"
       cx="100.10345"
       cy="175.23068"
       r="0.5" /><circle
       style="fill:#000000;stroke-width:0.160365"
       id="path503-1-5-7-3-0"
       cx="96.29995"
       cy="175.10222"
       r="0.5" /><circle
       style="fill:#000000;stroke-width:0.160365"
       id="path503-0-5-9-9-5"
       cx="92.666275"
       cy="174.95898"
       r="0.5" /><circle
       style="fill:#000000;stroke-width:0.160365"
       id="path503-0-5-6-1-8-2"
       cx="88.563011"
       cy="174.91931"
       r="0.5" /></g></svg>
